<svg width="100" height="99" viewBox="0 0 100 99" fill="none" xmlns="http://www.w3.org/2000/svg">
<path fill-rule="evenodd" clip-rule="evenodd" d="M100 49.3827C100 76.6568 77.615 98.7654 50 98.7654C22.3862 98.7654 0 76.6568 0 49.3827C0 22.1099 22.3862 0 50 0C77.615 0 100 22.1099 100 49.3827Z" fill="#E5F5F9"/>
<path fill-rule="evenodd" clip-rule="evenodd" d="M81.0397 63.4668L86.1972 42.4792C86.351 41.752 86.1647 40.994 85.6897 40.4175C85.2147 39.8409 84.5022 39.5063 83.7497 39.5063H47.6072C46.4235 39.5063 45.4022 40.3273 45.1597 41.4718L40.0022 62.4594C39.8485 63.1866 40.036 63.9446 40.5097 64.5212C40.9847 65.0977 41.6972 65.4323 42.4497 65.4323H78.5922C79.7772 65.4323 80.7985 64.6125 81.0397 63.4668Z" fill="white"/>
<path fill-rule="evenodd" clip-rule="evenodd" d="M81.0397 63.4668C80.7985 64.6125 79.7772 65.4323 78.5922 65.4323H42.4497C41.6972 65.4323 40.9847 65.0977 40.5097 64.5212C40.036 63.9446 39.8485 63.1866 40.0022 62.4607L45.1597 41.473C45.4022 40.3273 46.4235 39.5063 47.6072 39.5063H83.7497C84.5022 39.5063 85.2147 39.8409 85.6897 40.4175C86.1647 40.994 86.351 41.752 86.1972 42.4792L81.0397 63.4668Z" stroke="#009EC7" stroke-linecap="round" stroke-linejoin="round"/>
<path fill-rule="evenodd" clip-rule="evenodd" d="M78.125 74.6915C78.125 75.7149 70.01 76.5433 60 76.5433C49.99 76.5433 41.875 75.7149 41.875 74.6915C41.875 73.6692 49.99 72.8396 60 72.8396C70.01 72.8396 78.125 73.6692 78.125 74.6915Z" fill="#B2E1EE"/>
<path fill-rule="evenodd" clip-rule="evenodd" d="M60.4861 51.4997C62.0623 52.6528 64.1761 52.7886 65.8898 51.8478L85.2798 40.0231C84.8461 39.6923 84.3098 39.5059 83.7498 39.5059H47.6073C47.0798 39.5059 46.5836 39.6701 46.1748 39.9515L60.4861 51.4997Z" fill="white"/>
<path fill-rule="evenodd" clip-rule="evenodd" d="M60.4861 51.4997C62.0623 52.6528 64.1761 52.7886 65.8898 51.8478L85.2798 40.0231C84.8461 39.6923 84.3098 39.5059 83.7498 39.5059H47.6073C47.0798 39.5059 46.5836 39.6701 46.1748 39.9515L60.4861 51.4997Z" stroke="#009EC7" stroke-linecap="round" stroke-linejoin="round"/>
<path d="M19.375 55.5557H36.2" stroke="#009EC7" stroke-linecap="round" stroke-linejoin="round"/>
<path d="M15.5746 61.7285H34.9496" stroke="#009EC7" stroke-linecap="round" stroke-linejoin="round"/>
<path d="M10 61.7285H12.5" stroke="#009EC7" stroke-linecap="round" stroke-linejoin="round"/>
<path d="M6.25 61.7285H6.875" stroke="#009EC7" stroke-linecap="round" stroke-linejoin="round"/>
<path d="M10 55.5557H10.625" stroke="#009EC7" stroke-linecap="round" stroke-linejoin="round"/>
<path d="M15 49.3828H15.625" stroke="#009EC7" stroke-linecap="round" stroke-linejoin="round"/>
<path d="M20 43.21H20.625" stroke="#009EC7" stroke-linecap="round" stroke-linejoin="round"/>
<path d="M13.75 55.5557H16.25" stroke="#009EC7" stroke-linecap="round" stroke-linejoin="round"/>
<path d="M24.375 49.3828H37.45" stroke="#009EC7" stroke-linecap="round" stroke-linejoin="round"/>
<path d="M18.75 49.3828H21.25" stroke="#009EC7" stroke-linecap="round" stroke-linejoin="round"/>
<path d="M29.375 43.21H38.75" stroke="#009EC7" stroke-linecap="round" stroke-linejoin="round"/>
<path d="M23.75 43.21H26.25" stroke="#009EC7" stroke-linecap="round" stroke-linejoin="round"/>
<path d="M57.6729 49.2295L40.5104 64.5209" stroke="#009EC7" stroke-linecap="round" stroke-linejoin="round"/>
<path d="M68.8214 50.0603L80.7176 64.2615" stroke="#009EC7" stroke-linecap="round" stroke-linejoin="round"/>
</svg>
